STARTFONT 2.3
FONT -FontForge-Satisfy-Book-R-Normal--9-90-72-72-P-38-ISO10646-1
SIZE 9 72 72  2
FONTBOUNDINGBOX 11 13 -2 -5
COMMENT "Generated by fontforge, http://fontforge.sourceforge.net"
COMMENT "Copyright (c) 2011 by Font Diner, Inc. All rights reserved."
STARTPROPERTIES 40
FOUNDRY "FontForge"
FAMILY_NAME "Satisfy"
WEIGHT_NAME "Book"
SLANT "R"
SETWIDTH_NAME "Normal"
ADD_STYLE_NAME ""
PIXEL_SIZE 9
POINT_SIZE 90
RESOLUTION_X 72
RESOLUTION_Y 72
SPACING "P"
AVERAGE_WIDTH 38
CHARSET_REGISTRY "ISO10646"
CHARSET_ENCODING "1"
FONTNAME_REGISTRY ""
CHARSET_COLLECTIONS "ISO10646-1"
BITS_PER_PIXEL 2
FONT_NAME "Satisfy-Regular"
FACE_NAME "Satisfy Regular"
COPYRIGHT "Copyright (c) 2011 by Font Diner, Inc. All rights reserved."
FONT_VERSION "1.001"
FONT_ASCENT 7
FONT_DESCENT 2
UNDERLINE_POSITION -1
UNDERLINE_THICKNESS 1
X_HEIGHT 3
CAP_HEIGHT 6
RAW_ASCENT 799
RAW_DESCENT 200
NORM_SPACE 3
RELATIVE_WEIGHT 40
RELATIVE_SETWIDTH 50
SUPERSCRIPT_X 0
SUPERSCRIPT_Y 4
SUPERSCRIPT_SIZE 5
SUBSCRIPT_X 0
SUBSCRIPT_Y 1
SUBSCRIPT_SIZE 5
AVG_LOWERCASE_WIDTH 36
AVG_UPPERCASE_WIDTH 50
ENDPROPERTIES
CHARS 227
STARTCHAR space
ENCODING 32
SWIDTH 280 0
DWIDTH 3 0
BBX 1 1 0 0
BITMAP
00
ENDCHAR
STARTCHAR exclam
ENCODING 33
SWIDTH 249 0
DWIDTH 2 0
BBX 3 7 0 0
BITMAP
14
20
20
60
50
40
80
ENDCHAR
STARTCHAR quotedbl
ENCODING 34
SWIDTH 249 0
DWIDTH 2 0
BBX 3 3 0 4
BITMAP
14
58
94
ENDCHAR
STARTCHAR numbersign
ENCODING 35
SWIDTH 417 0
DWIDTH 4 0
BBX 4 5 0 1
BITMAP
15
6A
68
A9
94
ENDCHAR
STARTCHAR dollar
ENCODING 36
SWIDTH 292 0
DWIDTH 3 0
BBX 4 6 -1 0
BITMAP
0A
12
14
08
58
24
ENDCHAR
STARTCHAR percent
ENCODING 37
SWIDTH 574 0
DWIDTH 5 0
BBX 5 7 0 0
BITMAP
1040
5940
8A00
5800
1640
2480
8640
ENDCHAR
STARTCHAR ampersand
ENCODING 38
SWIDTH 460 0
DWIDTH 4 0
BBX 5 8 -1 -1
BITMAP
0140
0540
0A00
0D00
2900
5640
6B00
0100
ENDCHAR
STARTCHAR quotesingle
ENCODING 39
SWIDTH 113 0
DWIDTH 1 0
BBX 2 3 0 4
BITMAP
10
50
80
ENDCHAR
STARTCHAR parenleft
ENCODING 40
SWIDTH 234 0
DWIDTH 2 0
BBX 3 8 0 -1
BITMAP
14
20
10
50
80
80
80
40
ENDCHAR
STARTCHAR parenright
ENCODING 41
SWIDTH 204 0
DWIDTH 2 0
BBX 3 8 -1 -1
BITMAP
08
08
08
18
14
20
50
80
ENDCHAR
STARTCHAR asterisk
ENCODING 42
SWIDTH 327 0
DWIDTH 3 0
BBX 4 4 0 3
BITMAP
04
69
28
04
ENDCHAR
STARTCHAR plus
ENCODING 43
SWIDTH 350 0
DWIDTH 3 0
BBX 3 3 0 2
BITMAP
10
B8
20
ENDCHAR
STARTCHAR comma
ENCODING 44
SWIDTH 200 0
DWIDTH 2 0
BBX 1 2 0 -1
BITMAP
40
40
ENDCHAR
STARTCHAR hyphen
ENCODING 45
SWIDTH 353 0
DWIDTH 3 0
BBX 3 1 0 2
BITMAP
94
ENDCHAR
STARTCHAR period
ENCODING 46
SWIDTH 213 0
DWIDTH 2 0
BBX 1 1 0 0
BITMAP
80
ENDCHAR
STARTCHAR slash
ENCODING 47
SWIDTH 262 0
DWIDTH 2 0
BBX 5 7 -1 0
BITMAP
0140
0200
0500
0800
1000
2000
8000
ENDCHAR
STARTCHAR zero
ENCODING 48
SWIDTH 489 0
DWIDTH 4 0
BBX 4 7 0 0
BITMAP
05
26
62
92
82
85
68
ENDCHAR
STARTCHAR one
ENCODING 49
SWIDTH 272 0
DWIDTH 2 0
BBX 2 7 0 0
BITMAP
10
30
20
20
50
80
80
ENDCHAR
STARTCHAR two
ENCODING 50
SWIDTH 448 0
DWIDTH 4 0
BBX 4 7 0 0
BITMAP
05
22
12
08
24
90
E8
ENDCHAR
STARTCHAR three
ENCODING 51
SWIDTH 462 0
DWIDTH 4 0
BBX 4 8 0 -1
BITMAP
19
62
12
18
15
45
98
10
ENDCHAR
STARTCHAR four
ENCODING 52
SWIDTH 452 0
DWIDTH 4 0
BBX 4 7 0 0
BITMAP
01
0A
25
99
9D
08
18
ENDCHAR
STARTCHAR five
ENCODING 53
SWIDTH 444 0
DWIDTH 4 0
BBX 4 7 0 0
BITMAP
16
25
10
69
05
44
E4
ENDCHAR
STARTCHAR six
ENCODING 54
SWIDTH 477 0
DWIDTH 4 0
BBX 4 7 0 0
BITMAP
05
16
24
76
92
85
68
ENDCHAR
STARTCHAR seven
ENCODING 55
SWIDTH 406 0
DWIDTH 4 0
BBX 4 7 0 0
BITMAP
19
12
09
18
20
60
50
ENDCHAR
STARTCHAR eight
ENCODING 56
SWIDTH 444 0
DWIDTH 4 0
BBX 4 7 0 0
BITMAP
05
22
25
28
58
88
98
ENDCHAR
STARTCHAR nine
ENCODING 57
SWIDTH 462 0
DWIDTH 4 0
BBX 4 7 0 0
BITMAP
05
22
52
56
6A
08
A4
ENDCHAR
STARTCHAR colon
ENCODING 58
SWIDTH 226 0
DWIDTH 2 0
BBX 1 3 0 0
BITMAP
40
40
80
ENDCHAR
STARTCHAR semicolon
ENCODING 59
SWIDTH 212 0
DWIDTH 2 0
BBX 1 4 0 -1
BITMAP
40
40
40
40
ENDCHAR
STARTCHAR less
ENCODING 60
SWIDTH 271 0
DWIDTH 2 0
BBX 3 4 0 1
BITMAP
14
50
80
50
ENDCHAR
STARTCHAR equal
ENCODING 61
SWIDTH 374 0
DWIDTH 3 0
BBX 3 2 0 2
BITMAP
68
A8
ENDCHAR
STARTCHAR greater
ENCODING 62
SWIDTH 250 0
DWIDTH 2 0
BBX 3 4 -1 1
BITMAP
14
08
08
60
ENDCHAR
STARTCHAR question
ENCODING 63
SWIDTH 413 0
DWIDTH 4 0
BBX 4 8 0 -1
BITMAP
19
52
02
19
60
40
80
40
ENDCHAR
STARTCHAR at
ENCODING 64
SWIDTH 648 0
DWIDTH 6 0
BBX 7 6 -1 0
BITMAP
0550
1554
2598
5888
2A54
1490
ENDCHAR
STARTCHAR A
ENCODING 65
SWIDTH 552 0
DWIDTH 5 0
BBX 6 9 -1 -2
BITMAP
0050
0250
0550
0880
1880
6AC0
3080
6180
4180
ENDCHAR
STARTCHAR B
ENCODING 66
SWIDTH 607 0
DWIDTH 5 0
BBX 5 9 0 -2
BITMAP
1940
2880
2480
2180
3A00
5180
9180
C600
9400
ENDCHAR
STARTCHAR C
ENCODING 67
SWIDTH 548 0
DWIDTH 5 0
BBX 5 9 0 -2
BITMAP
0540
1880
20C0
5140
9000
C000
C000
9100
2400
ENDCHAR
STARTCHAR D
ENCODING 68
SWIDTH 632 0
DWIDTH 6 0
BBX 6 9 0 -2
BITMAP
1900
2580
2490
2090
2090
60C0
5140
8600
6400
ENDCHAR
STARTCHAR E
ENCODING 69
SWIDTH 523 0
DWIDTH 5 0
BBX 6 9 -1 -2
BITMAP
0150
0920
1860
1800
0A00
2000
6040
3140
1900
ENDCHAR
STARTCHAR F
ENCODING 70
SWIDTH 585 0
DWIDTH 5 0
BBX 5 9 0 -2
BITMAP
1640
6080
6080
0140
2B40
0500
0800
0800
0400
ENDCHAR
STARTCHAR G
ENCODING 71
SWIDTH 612 0
DWIDTH 6 0
BBX 5 9 0 -2
BITMAP
0140
1880
20C0
6140
9140
9680
8140
9200
2400
ENDCHAR
STARTCHAR H
ENCODING 72
SWIDTH 649 0
DWIDTH 6 0
BBX 6 9 0 -2
BITMAP
0410
1460
2090
2080
7AD0
5640
9240
C200
8100
ENDCHAR
STARTCHAR I
ENCODING 73
SWIDTH 537 0
DWIDTH 5 0
BBX 6 9 -1 -2
BITMAP
0040
0250
0250
0680
0180
1A90
6240
5200
1400
ENDCHAR
STARTCHAR J
ENCODING 74
SWIDTH 500 0
DWIDTH 5 0
BBX 6 9 -1 -2
BITMAP
01A0
0190
0080
0080
1580
2640
9300
8500
5400
ENDCHAR
STARTCHAR K
ENCODING 75
SWIDTH 497 0
DWIDTH 4 0
BBX 6 10 -1 -3
BITMAP
0510
0860
0890
1580
2A00
2640
2240
6200
5200
0040
ENDCHAR
STARTCHAR L
ENCODING 76
SWIDTH 492 0
DWIDTH 4 0
BBX 6 9 -1 -2
BITMAP
0050
01A0
0290
1B40
0200
0500
0800
B800
5680
ENDCHAR
STARTCHAR M
ENCODING 77
SWIDTH 733 0
DWIDTH 7 0
BBX 8 9 -1 -2
BITMAP
0105
034D
0659
0A68
0A58
5A98
9694
A024
5014
ENDCHAR
STARTCHAR N
ENCODING 78
SWIDTH 541 0
DWIDTH 5 0
BBX 7 9 -1 -2
BITMAP
0414
0D24
1D64
1990
2580
2580
2280
6340
1100
ENDCHAR
STARTCHAR O
ENCODING 79
SWIDTH 567 0
DWIDTH 5 0
BBX 5 9 0 -2
BITMAP
0A00
2540
2080
5080
8180
C140
8200
8500
2400
ENDCHAR
STARTCHAR P
ENCODING 80
SWIDTH 552 0
DWIDTH 5 0
BBX 5 9 0 -2
BITMAP
1540
64C0
2080
2180
2600
6400
9000
C000
4000
ENDCHAR
STARTCHAR Q
ENCODING 81
SWIDTH 583 0
DWIDTH 5 0
BBX 5 9 0 -2
BITMAP
0600
2480
6080
9080
8080
9240
1200
6D00
6140
ENDCHAR
STARTCHAR R
ENCODING 82
SWIDTH 560 0
DWIDTH 5 0
BBX 5 9 0 -2
BITMAP
1640
6480
2080
2080
7600
6800
9500
C500
4600
ENDCHAR
STARTCHAR S
ENCODING 83
SWIDTH 474 0
DWIDTH 4 0
BBX 6 9 -1 -2
BITMAP
0280
0850
1890
0C00
0600
0200
1200
6200
2800
ENDCHAR
STARTCHAR T
ENCODING 84
SWIDTH 423 0
DWIDTH 4 0
BBX 5 9 0 -2
BITMAP
5940
5C00
0800
1400
2400
2000
2000
6000
5000
ENDCHAR
STARTCHAR U
ENCODING 85
SWIDTH 574 0
DWIDTH 5 0
BBX 6 9 0 -2
BITMAP
0450
2490
30C0
6180
9140
8200
8300
CA00
6500
ENDCHAR
STARTCHAR V
ENCODING 86
SWIDTH 503 0
DWIDTH 5 0
BBX 5 9 0 -2
BITMAP
1040
2080
5240
9200
8600
8900
5800
6400
2000
ENDCHAR
STARTCHAR W
ENCODING 87
SWIDTH 817 0
DWIDTH 7 0
BBX 8 9 0 -2
BITMAP
1404
2189
2248
5208
8208
8614
8A20
9A50
2180
ENDCHAR
STARTCHAR X
ENCODING 88
SWIDTH 579 0
DWIDTH 5 0
BBX 6 9 0 -2
BITMAP
2010
9490
6940
0A00
0800
1C00
2800
9500
4240
ENDCHAR
STARTCHAR Y
ENCODING 89
SWIDTH 532 0
DWIDTH 5 0
BBX 5 9 0 -2
BITMAP
1040
30C0
6180
5240
8300
9A00
1600
5800
6400
ENDCHAR
STARTCHAR Z
ENCODING 90
SWIDTH 455 0
DWIDTH 4 0
BBX 6 9 -1 -2
BITMAP
0690
0590
0080
0240
0900
1800
2000
A500
5500
ENDCHAR
STARTCHAR bracketleft
ENCODING 91
SWIDTH 202 0
DWIDTH 2 0
BBX 4 9 -1 -1
BITMAP
05
08
08
14
20
20
20
50
60
ENDCHAR
STARTCHAR backslash
ENCODING 92
SWIDTH 273 0
DWIDTH 2 0
BBX 2 7 0 0
BITMAP
40
80
50
50
20
20
20
ENDCHAR
STARTCHAR bracketright
ENCODING 93
SWIDTH 216 0
DWIDTH 2 0
BBX 3 9 -1 -1
BITMAP
04
08
08
08
04
14
20
20
90
ENDCHAR
STARTCHAR asciicircum
ENCODING 94
SWIDTH 287 0
DWIDTH 3 0
BBX 3 4 0 3
BITMAP
14
28
88
48
ENDCHAR
STARTCHAR underscore
ENCODING 95
SWIDTH 439 0
DWIDTH 4 0
BBX 5 1 -1 0
BITMAP
AA40
ENDCHAR
STARTCHAR grave
ENCODING 96
SWIDTH 567 0
DWIDTH 5 0
BBX 2 1 2 5
BITMAP
50
ENDCHAR
STARTCHAR a
ENCODING 97
SWIDTH 435 0
DWIDTH 4 0
BBX 5 4 0 0
BITMAP
1400
9800
8840
D900
ENDCHAR
STARTCHAR b
ENCODING 98
SWIDTH 415 0
DWIDTH 4 0
BBX 5 6 0 0
BITMAP
3000
7000
A000
9D40
8800
A000
ENDCHAR
STARTCHAR c
ENCODING 99
SWIDTH 363 0
DWIDTH 3 0
BBX 4 4 0 0
BITMAP
24
94
81
94
ENDCHAR
STARTCHAR d
ENCODING 100
SWIDTH 483 0
DWIDTH 4 0
BBX 5 6 0 0
BITMAP
0240
0300
1600
8900
8840
9900
ENDCHAR
STARTCHAR e
ENCODING 101
SWIDTH 372 0
DWIDTH 3 0
BBX 4 4 0 0
BITMAP
14
94
D1
94
ENDCHAR
STARTCHAR f
ENCODING 102
SWIDTH 325 0
DWIDTH 3 0
BBX 5 11 -1 -4
BITMAP
0400
0800
0800
0800
1940
3000
2400
5800
5800
8800
A400
ENDCHAR
STARTCHAR g
ENCODING 103
SWIDTH 459 0
DWIDTH 4 0
BBX 5 9 0 -5
BITMAP
1400
8900
8840
9D00
2800
A400
A000
A000
4000
ENDCHAR
STARTCHAR h
ENCODING 104
SWIDTH 465 0
DWIDTH 4 0
BBX 5 6 0 0
BITMAP
3000
2000
6400
A800
8840
8900
ENDCHAR
STARTCHAR i
ENCODING 105
SWIDTH 274 0
DWIDTH 2 0
BBX 3 6 0 0
BITMAP
10
00
10
90
84
A0
ENDCHAR
STARTCHAR j
ENCODING 106
SWIDTH 267 0
DWIDTH 2 0
BBX 5 10 -2 -4
BITMAP
0200
0000
0100
0500
0840
0900
1800
6400
A000
A000
ENDCHAR
STARTCHAR k
ENCODING 107
SWIDTH 440 0
DWIDTH 4 0
BBX 5 7 0 0
BITMAP
1000
3000
2000
5400
9800
A440
9900
ENDCHAR
STARTCHAR l
ENCODING 108
SWIDTH 218 0
DWIDTH 2 0
BBX 2 6 0 0
BITMAP
30
20
50
90
80
80
ENDCHAR
STARTCHAR m
ENCODING 109
SWIDTH 717 0
DWIDTH 6 0
BBX 7 4 0 0
BITMAP
0440
6A90
8884
8890
ENDCHAR
STARTCHAR n
ENCODING 110
SWIDTH 461 0
DWIDTH 4 0
BBX 5 4 0 0
BITMAP
1400
A800
8840
8900
ENDCHAR
STARTCHAR o
ENCODING 111
SWIDTH 393 0
DWIDTH 4 0
BBX 4 4 0 0
BITMAP
10
99
A8
A4
ENDCHAR
STARTCHAR p
ENCODING 112
SWIDTH 451 0
DWIDTH 4 0
BBX 6 8 -1 -4
BITMAP
1500
2A00
2210
3E40
5400
5000
8000
8000
ENDCHAR
STARTCHAR q
ENCODING 113
SWIDTH 462 0
DWIDTH 4 0
BBX 4 8 0 -4
BITMAP
15
89
88
99
19
14
20
20
ENDCHAR
STARTCHAR r
ENCODING 114
SWIDTH 406 0
DWIDTH 4 0
BBX 5 4 -1 0
BITMAP
1800
1A00
1540
4940
ENDCHAR
STARTCHAR s
ENCODING 115
SWIDTH 351 0
DWIDTH 3 0
BBX 3 4 0 0
BITMAP
20
60
54
94
ENDCHAR
STARTCHAR t
ENCODING 116
SWIDTH 301 0
DWIDTH 3 0
BBX 5 6 -1 0
BITMAP
0800
6E40
1800
1400
2100
2500
ENDCHAR
STARTCHAR u
ENCODING 117
SWIDTH 468 0
DWIDTH 4 0
BBX 5 4 0 0
BITMAP
0400
8800
8840
A900
ENDCHAR
STARTCHAR v
ENCODING 118
SWIDTH 427 0
DWIDTH 4 0
BBX 5 4 0 0
BITMAP
4400
8840
8900
A000
ENDCHAR
STARTCHAR w
ENCODING 119
SWIDTH 646 0
DWIDTH 6 0
BBX 7 4 0 0
BITMAP
4440
88C4
8890
9A00
ENDCHAR
STARTCHAR x
ENCODING 120
SWIDTH 399 0
DWIDTH 4 0
BBX 4 4 0 0
BITMAP
44
68
60
A9
ENDCHAR
STARTCHAR y
ENCODING 121
SWIDTH 406 0
DWIDTH 4 0
BBX 3 8 0 -4
BITMAP
44
88
88
A8
14
20
20
20
ENDCHAR
STARTCHAR z
ENCODING 122
SWIDTH 448 0
DWIDTH 4 0
BBX 6 8 -1 -4
BITMAP
0640
0500
0610
0A40
0600
2200
5900
2400
ENDCHAR
STARTCHAR braceleft
ENCODING 123
SWIDTH 243 0
DWIDTH 2 0
BBX 3 9 0 -1
BITMAP
04
24
20
20
90
50
80
80
80
ENDCHAR
STARTCHAR bar
ENCODING 124
SWIDTH 253 0
DWIDTH 2 0
BBX 2 7 0 0
BITMAP
10
20
20
50
50
80
80
ENDCHAR
STARTCHAR braceright
ENCODING 125
SWIDTH 243 0
DWIDTH 2 0
BBX 4 9 -1 -1
BITMAP
04
09
08
08
08
14
20
20
90
ENDCHAR
STARTCHAR asciitilde
ENCODING 126
SWIDTH 329 0
DWIDTH 3 0
BBX 3 2 0 2
BITMAP
A4
04
ENDCHAR
STARTCHAR uni00A0
ENCODING 160
SWIDTH 280 0
DWIDTH 3 0
BBX 1 1 0 0
BITMAP
00
ENDCHAR
STARTCHAR exclamdown
ENCODING 161
SWIDTH 249 0
DWIDTH 2 0
BBX 3 7 0 0
BITMAP
14
10
20
60
50
80
C0
ENDCHAR
STARTCHAR cent
ENCODING 162
SWIDTH 322 0
DWIDTH 3 0
BBX 3 7 0 0
BITMAP
04
18
58
84
80
90
50
ENDCHAR
STARTCHAR sterling
ENCODING 163
SWIDTH 318 0
DWIDTH 3 0
BBX 4 6 -1 0
BITMAP
0A
16
24
24
24
54
ENDCHAR
STARTCHAR currency
ENCODING 164
SWIDTH 347 0
DWIDTH 3 0
BBX 3 3 0 2
BITMAP
54
54
A4
ENDCHAR
STARTCHAR yen
ENCODING 165
SWIDTH 326 0
DWIDTH 3 0
BBX 4 6 0 0
BITMAP
55
58
20
60
A0
40
ENDCHAR
STARTCHAR brokenbar
ENCODING 166
SWIDTH 253 0
DWIDTH 2 0
BBX 2 7 0 0
BITMAP
10
20
20
00
50
80
80
ENDCHAR
STARTCHAR section
ENCODING 167
SWIDTH 297 0
DWIDTH 3 0
BBX 4 7 -1 0
BITMAP
05
15
08
25
25
18
58
ENDCHAR
STARTCHAR dieresis
ENCODING 168
SWIDTH 567 0
DWIDTH 5 0
BBX 2 1 2 5
BITMAP
50
ENDCHAR
STARTCHAR copyright
ENCODING 169
SWIDTH 456 0
DWIDTH 4 0
BBX 5 5 0 2
BITMAP
1500
5540
9140
9500
5500
ENDCHAR
STARTCHAR ordfeminine
ENCODING 170
SWIDTH 373 0
DWIDTH 3 0
BBX 4 5 0 0
BITMAP
10
54
94
A9
A4
ENDCHAR
STARTCHAR guillemotleft
ENCODING 171
SWIDTH 346 0
DWIDTH 3 0
BBX 4 4 -1 0
BITMAP
05
25
68
25
ENDCHAR
STARTCHAR logicalnot
ENCODING 172
SWIDTH 512 0
DWIDTH 5 0
BBX 5 3 0 1
BITMAP
6A40
0140
0100
ENDCHAR
STARTCHAR sfthyphen
ENCODING 173
SWIDTH 353 0
DWIDTH 3 0
BBX 3 1 0 2
BITMAP
94
ENDCHAR
STARTCHAR registered
ENCODING 174
SWIDTH 456 0
DWIDTH 4 0
BBX 5 5 0 2
BITMAP
1500
6540
9940
9500
5500
ENDCHAR
STARTCHAR macron
ENCODING 175
SWIDTH 567 0
DWIDTH 5 0
BBX 2 1 2 5
BITMAP
A0
ENDCHAR
STARTCHAR degree
ENCODING 176
SWIDTH 144 0
DWIDTH 1 0
BBX 2 1 0 5
BITMAP
60
ENDCHAR
STARTCHAR twosuperior
ENCODING 178
SWIDTH 268 0
DWIDTH 2 0
BBX 3 5 0 2
BITMAP
14
58
10
50
50
ENDCHAR
STARTCHAR threesuperior
ENCODING 179
SWIDTH 262 0
DWIDTH 2 0
BBX 3 5 0 2
BITMAP
14
58
24
54
50
ENDCHAR
STARTCHAR acute
ENCODING 180
SWIDTH 567 0
DWIDTH 5 0
BBX 2 1 2 5
BITMAP
60
ENDCHAR
STARTCHAR mu
ENCODING 181
SWIDTH 453 0
DWIDTH 4 0
BBX 5 5 -1 -2
BITMAP
2200
6540
6A40
8000
4000
ENDCHAR
STARTCHAR paragraph
ENCODING 182
SWIDTH 411 0
DWIDTH 4 0
BBX 4 7 0 0
BITMAP
05
7E
BA
75
14
24
28
ENDCHAR
STARTCHAR periodcentered
ENCODING 183
SWIDTH 168 0
DWIDTH 2 0
BBX 1 2 0 2
BITMAP
40
40
ENDCHAR
STARTCHAR cedilla
ENCODING 184
SWIDTH 567 0
DWIDTH 5 0
BBX 2 2 2 -1
BITMAP
50
60
ENDCHAR
STARTCHAR onesuperior
ENCODING 185
SWIDTH 150 0
DWIDTH 1 0
BBX 2 5 0 2
BITMAP
10
10
50
80
40
ENDCHAR
STARTCHAR ordmasculine
ENCODING 186
SWIDTH 319 0
DWIDTH 3 0
BBX 4 4 -1 0
BITMAP
25
2A
28
68
ENDCHAR
STARTCHAR guillemotright
ENCODING 187
SWIDTH 346 0
DWIDTH 3 0
BBX 4 4 -1 0
BITMAP
14
25
16
58
ENDCHAR
STARTCHAR onequarter
ENCODING 188
SWIDTH 579 0
DWIDTH 5 0
BBX 5 7 0 0
BITMAP
1040
2140
5500
8980
5640
5680
8140
ENDCHAR
STARTCHAR onehalf
ENCODING 189
SWIDTH 603 0
DWIDTH 5 0
BBX 5 7 0 0
BITMAP
1040
2140
5100
4980
5580
5140
8640
ENDCHAR
STARTCHAR threequarters
ENCODING 190
SWIDTH 669 0
DWIDTH 6 0
BBX 6 7 0 0
BITMAP
1410
5880
2540
5660
5990
1590
2080
ENDCHAR
STARTCHAR questiondown
ENCODING 191
SWIDTH 413 0
DWIDTH 4 0
BBX 5 8 -1 -1
BITMAP
0140
0040
0240
0600
2400
5100
6600
0400
ENDCHAR
STARTCHAR Agrave
ENCODING 192
SWIDTH 552 0
DWIDTH 5 0
BBX 6 10 -1 -2
BITMAP
0090
0050
0250
0550
0880
1880
6AC0
3080
6180
4180
ENDCHAR
STARTCHAR Aacute
ENCODING 193
SWIDTH 552 0
DWIDTH 5 0
BBX 6 10 -1 -2
BITMAP
0090
0090
0250
0550
0880
1880
6AC0
3080
6180
4180
ENDCHAR
STARTCHAR Acircumflex
ENCODING 194
SWIDTH 552 0
DWIDTH 5 0
BBX 6 10 -1 -2
BITMAP
0060
0050
0250
0550
0880
1880
6AC0
3080
6180
4180
ENDCHAR
STARTCHAR Atilde
ENCODING 195
SWIDTH 552 0
DWIDTH 5 0
BBX 6 10 -1 -2
BITMAP
01A0
0050
0250
0550
0880
1880
6AC0
3080
6180
4180
ENDCHAR
STARTCHAR Adieresis
ENCODING 196
SWIDTH 552 0
DWIDTH 5 0
BBX 6 10 -1 -2
BITMAP
0050
0050
0250
0550
0880
1880
6AC0
3080
6180
4180
ENDCHAR
STARTCHAR Aring
ENCODING 197
SWIDTH 552 0
DWIDTH 5 0
BBX 6 10 -1 -2
BITMAP
0050
0090
0250
0550
0880
1880
6AC0
3080
6180
4180
ENDCHAR
STARTCHAR AE
ENCODING 198
SWIDTH 869 0
DWIDTH 8 0
BBX 9 9 -1 -2
BITMAP
005540
027480
057180
08B000
18A800
6AD000
308100
61D100
41E400
ENDCHAR
STARTCHAR Ccedilla
ENCODING 199
SWIDTH 548 0
DWIDTH 5 0
BBX 5 11 0 -4
BITMAP
0540
1880
20C0
5140
9000
C000
C000
9100
2400
1400
1000
ENDCHAR
STARTCHAR Egrave
ENCODING 200
SWIDTH 523 0
DWIDTH 5 0
BBX 6 10 -1 -2
BITMAP
0080
0150
0920
1860
1800
0A00
2000
6040
3140
1900
ENDCHAR
STARTCHAR Eacute
ENCODING 201
SWIDTH 523 0
DWIDTH 5 0
BBX 6 10 -1 -2
BITMAP
0090
0150
0920
1860
1800
0A00
2000
6040
3140
1900
ENDCHAR
STARTCHAR Ecircumflex
ENCODING 202
SWIDTH 523 0
DWIDTH 5 0
BBX 6 10 -1 -2
BITMAP
0060
0150
0920
1860
1800
0A00
2000
6040
3140
1900
ENDCHAR
STARTCHAR Edieresis
ENCODING 203
SWIDTH 523 0
DWIDTH 5 0
BBX 6 10 -1 -2
BITMAP
0160
0150
0920
1860
1800
0A00
2000
6040
3140
1900
ENDCHAR
STARTCHAR Igrave
ENCODING 204
SWIDTH 537 0
DWIDTH 5 0
BBX 6 10 -1 -2
BITMAP
0090
0040
0250
0250
0680
0180
1A90
6240
5200
1400
ENDCHAR
STARTCHAR Iacute
ENCODING 205
SWIDTH 537 0
DWIDTH 5 0
BBX 6 10 -1 -2
BITMAP
0050
0040
0250
0250
0680
0180
1A90
6240
5200
1400
ENDCHAR
STARTCHAR Icircumflex
ENCODING 206
SWIDTH 537 0
DWIDTH 5 0
BBX 6 10 -1 -2
BITMAP
0060
0040
0250
0250
0680
0180
1A90
6240
5200
1400
ENDCHAR
STARTCHAR Idieresis
ENCODING 207
SWIDTH 537 0
DWIDTH 5 0
BBX 6 10 -1 -2
BITMAP
0050
0040
0250
0250
0680
0180
1A90
6240
5200
1400
ENDCHAR
STARTCHAR Eth
ENCODING 208
SWIDTH 632 0
DWIDTH 6 0
BBX 6 9 0 -2
BITMAP
1900
2580
2490
2090
B890
60C0
5140
8600
6400
ENDCHAR
STARTCHAR Ntilde
ENCODING 209
SWIDTH 541 0
DWIDTH 5 0
BBX 7 10 -1 -2
BITMAP
0290
0414
0D24
1D64
1990
2580
2580
2280
6340
1100
ENDCHAR
STARTCHAR Ograve
ENCODING 210
SWIDTH 567 0
DWIDTH 5 0
BBX 5 10 0 -2
BITMAP
0200
0A00
2540
2080
5080
8180
C140
8200
8500
2400
ENDCHAR
STARTCHAR Oacute
ENCODING 211
SWIDTH 567 0
DWIDTH 5 0
BBX 5 10 0 -2
BITMAP
0200
0A00
2540
2080
5080
8180
C140
8200
8500
2400
ENDCHAR
STARTCHAR Ocircumflex
ENCODING 212
SWIDTH 567 0
DWIDTH 5 0
BBX 5 10 0 -2
BITMAP
0640
0A00
2540
2080
5080
8180
C140
8200
8500
2400
ENDCHAR
STARTCHAR Otilde
ENCODING 213
SWIDTH 567 0
DWIDTH 5 0
BBX 5 10 0 -2
BITMAP
0A40
0A00
2540
2080
5080
8180
C140
8200
8500
2400
ENDCHAR
STARTCHAR Odieresis
ENCODING 214
SWIDTH 567 0
DWIDTH 5 0
BBX 5 10 0 -2
BITMAP
0540
0A00
2540
2080
5080
8180
C140
8200
8500
2400
ENDCHAR
STARTCHAR multiply
ENCODING 215
SWIDTH 281 0
DWIDTH 3 0
BBX 3 4 0 1
BITMAP
44
60
60
50
ENDCHAR
STARTCHAR Oslash
ENCODING 216
SWIDTH 597 0
DWIDTH 5 0
BBX 5 9 0 -2
BITMAP
0680
1980
2280
5580
9980
A540
A200
9600
A400
ENDCHAR
STARTCHAR Ugrave
ENCODING 217
SWIDTH 574 0
DWIDTH 5 0
BBX 6 10 0 -2
BITMAP
0200
0450
2490
30C0
6180
9140
8200
8300
CA00
6500
ENDCHAR
STARTCHAR Uacute
ENCODING 218
SWIDTH 574 0
DWIDTH 5 0
BBX 6 10 0 -2
BITMAP
0140
0450
2490
30C0
6180
9140
8200
8300
CA00
6500
ENDCHAR
STARTCHAR Ucircumflex
ENCODING 219
SWIDTH 574 0
DWIDTH 5 0
BBX 6 10 0 -2
BITMAP
0180
0450
2490
30C0
6180
9140
8200
8300
CA00
6500
ENDCHAR
STARTCHAR Udieresis
ENCODING 220
SWIDTH 574 0
DWIDTH 5 0
BBX 6 10 0 -2
BITMAP
0540
0450
2490
30C0
6180
9140
8200
8300
CA00
6500
ENDCHAR
STARTCHAR Yacute
ENCODING 221
SWIDTH 532 0
DWIDTH 5 0
BBX 5 10 0 -2
BITMAP
0240
1040
30C0
6180
5240
8300
9A00
1600
5800
6400
ENDCHAR
STARTCHAR Thorn
ENCODING 222
SWIDTH 569 0
DWIDTH 5 0
BBX 6 9 -1 -2
BITMAP
0500
0800
1D90
2820
1420
2090
3640
2000
5000
ENDCHAR
STARTCHAR germandbls
ENCODING 223
SWIDTH 495 0
DWIDTH 4 0
BBX 5 10 -1 -4
BITMAP
0640
0980
1600
2200
6080
2680
5900
8800
9800
E000
ENDCHAR
STARTCHAR agrave
ENCODING 224
SWIDTH 435 0
DWIDTH 4 0
BBX 5 5 0 0
BITMAP
1400
1400
9800
8840
D900
ENDCHAR
STARTCHAR aacute
ENCODING 225
SWIDTH 435 0
DWIDTH 4 0
BBX 5 5 0 0
BITMAP
1800
1400
9800
8840
D900
ENDCHAR
STARTCHAR acircumflex
ENCODING 226
SWIDTH 435 0
DWIDTH 4 0
BBX 5 5 0 0
BITMAP
1800
1400
9800
8840
D900
ENDCHAR
STARTCHAR atilde
ENCODING 227
SWIDTH 435 0
DWIDTH 4 0
BBX 5 5 0 0
BITMAP
2900
1400
9800
8840
D900
ENDCHAR
STARTCHAR adieresis
ENCODING 228
SWIDTH 435 0
DWIDTH 4 0
BBX 5 5 0 0
BITMAP
1500
1400
9800
8840
D900
ENDCHAR
STARTCHAR aring
ENCODING 229
SWIDTH 435 0
DWIDTH 4 0
BBX 5 5 0 0
BITMAP
1400
1400
9800
8840
D900
ENDCHAR
STARTCHAR ae
ENCODING 230
SWIDTH 594 0
DWIDTH 5 0
BBX 6 4 0 0
BITMAP
1540
9D40
8D10
E940
ENDCHAR
STARTCHAR ccedilla
ENCODING 231
SWIDTH 363 0
DWIDTH 3 0
BBX 4 6 0 -2
BITMAP
24
94
81
94
60
20
ENDCHAR
STARTCHAR egrave
ENCODING 232
SWIDTH 372 0
DWIDTH 3 0
BBX 4 5 0 0
BITMAP
24
14
94
D1
94
ENDCHAR
STARTCHAR eacute
ENCODING 233
SWIDTH 372 0
DWIDTH 3 0
BBX 4 5 0 0
BITMAP
14
14
94
D1
94
ENDCHAR
STARTCHAR ecircumflex
ENCODING 234
SWIDTH 372 0
DWIDTH 3 0
BBX 4 5 0 0
BITMAP
18
14
94
D1
94
ENDCHAR
STARTCHAR edieresis
ENCODING 235
SWIDTH 372 0
DWIDTH 3 0
BBX 4 5 0 0
BITMAP
14
14
94
D1
94
ENDCHAR
STARTCHAR igrave
ENCODING 236
SWIDTH 274 0
DWIDTH 2 0
BBX 3 5 0 0
BITMAP
50
10
90
84
A0
ENDCHAR
STARTCHAR iacute
ENCODING 237
SWIDTH 274 0
DWIDTH 2 0
BBX 3 5 0 0
BITMAP
14
10
90
84
A0
ENDCHAR
STARTCHAR icircumflex
ENCODING 238
SWIDTH 274 0
DWIDTH 2 0
BBX 3 5 0 0
BITMAP
64
10
90
84
A0
ENDCHAR
STARTCHAR idieresis
ENCODING 239
SWIDTH 274 0
DWIDTH 2 0
BBX 3 5 0 0
BITMAP
54
10
90
84
A0
ENDCHAR
STARTCHAR eth
ENCODING 240
SWIDTH 393 0
DWIDTH 4 0
BBX 4 6 0 0
BITMAP
04
29
28
99
A8
A4
ENDCHAR
STARTCHAR ntilde
ENCODING 241
SWIDTH 461 0
DWIDTH 4 0
BBX 5 5 0 0
BITMAP
2900
1400
A800
8840
8900
ENDCHAR
STARTCHAR ograve
ENCODING 242
SWIDTH 393 0
DWIDTH 4 0
BBX 4 5 0 0
BITMAP
24
10
99
A8
A4
ENDCHAR
STARTCHAR oacute
ENCODING 243
SWIDTH 393 0
DWIDTH 4 0
BBX 4 5 0 0
BITMAP
14
20
99
A8
A4
ENDCHAR
STARTCHAR ocircumflex
ENCODING 244
SWIDTH 393 0
DWIDTH 4 0
BBX 4 5 0 0
BITMAP
14
10
99
A8
A4
ENDCHAR
STARTCHAR otilde
ENCODING 245
SWIDTH 393 0
DWIDTH 4 0
BBX 4 5 0 0
BITMAP
68
10
99
A8
A4
ENDCHAR
STARTCHAR odieresis
ENCODING 246
SWIDTH 393 0
DWIDTH 4 0
BBX 4 5 0 0
BITMAP
14
10
99
A8
A4
ENDCHAR
STARTCHAR divide
ENCODING 247
SWIDTH 350 0
DWIDTH 3 0
BBX 3 3 0 2
BITMAP
10
68
10
ENDCHAR
STARTCHAR oslash
ENCODING 248
SWIDTH 406 0
DWIDTH 4 0
BBX 6 5 -1 -1
BITMAP
0600
2650
2A40
2900
5000
ENDCHAR
STARTCHAR ugrave
ENCODING 249
SWIDTH 468 0
DWIDTH 4 0
BBX 5 5 0 0
BITMAP
1400
0400
8800
8840
A900
ENDCHAR
STARTCHAR uacute
ENCODING 250
SWIDTH 468 0
DWIDTH 4 0
BBX 5 5 0 0
BITMAP
1800
0400
8800
8840
A900
ENDCHAR
STARTCHAR ucircumflex
ENCODING 251
SWIDTH 468 0
DWIDTH 4 0
BBX 5 5 0 0
BITMAP
1800
0400
8800
8840
A900
ENDCHAR
STARTCHAR udieresis
ENCODING 252
SWIDTH 468 0
DWIDTH 4 0
BBX 5 5 0 0
BITMAP
1500
0400
8800
8840
A900
ENDCHAR
STARTCHAR yacute
ENCODING 253
SWIDTH 406 0
DWIDTH 4 0
BBX 3 9 0 -4
BITMAP
08
44
88
88
A8
14
20
20
20
ENDCHAR
STARTCHAR thorn
ENCODING 254
SWIDTH 451 0
DWIDTH 4 0
BBX 6 10 -1 -4
BITMAP
0800
0800
1900
1A00
2210
3E40
5400
5000
8000
8000
ENDCHAR
STARTCHAR ydieresis
ENCODING 255
SWIDTH 406 0
DWIDTH 4 0
BBX 3 9 0 -4
BITMAP
14
44
88
88
A8
14
20
20
20
ENDCHAR
STARTCHAR dotlessi
ENCODING 305
SWIDTH 274 0
DWIDTH 2 0
BBX 3 4 0 0
BITMAP
10
90
84
A0
ENDCHAR
STARTCHAR Lslash
ENCODING 321
SWIDTH 492 0
DWIDTH 4 0
BBX 6 9 -1 -2
BITMAP
0050
01A0
0290
1B40
0200
1A00
0800
B800
5680
ENDCHAR
STARTCHAR lslash
ENCODING 322
SWIDTH 218 0
DWIDTH 2 0
BBX 4 6 -1 0
BITMAP
0C
08
29
64
20
20
ENDCHAR
STARTCHAR OE
ENCODING 338
SWIDTH 918 0
DWIDTH 8 0
BBX 9 9 0 -2
BITMAP
0A0500
25A140
20D200
50D000
81A400
C18000
834100
868400
246400
ENDCHAR
STARTCHAR oe
ENCODING 339
SWIDTH 583 0
DWIDTH 5 0
BBX 6 4 0 0
BITMAP
1140
9D40
AD10
A940
ENDCHAR
STARTCHAR Scaron
ENCODING 352
SWIDTH 474 0
DWIDTH 4 0
BBX 6 10 -1 -2
BITMAP
0090
0280
0850
1890
0C00
0600
0200
1200
6200
2800
ENDCHAR
STARTCHAR scaron
ENCODING 353
SWIDTH 351 0
DWIDTH 3 0
BBX 3 6 0 0
BITMAP
24
00
20
60
54
94
ENDCHAR
STARTCHAR Ydieresis
ENCODING 376
SWIDTH 532 0
DWIDTH 5 0
BBX 5 10 0 -2
BITMAP
0540
1040
30C0
6180
5240
8300
9A00
1600
5800
6400
ENDCHAR
STARTCHAR Zcaron
ENCODING 381
SWIDTH 455 0
DWIDTH 4 0
BBX 6 10 -1 -2
BITMAP
0190
0690
0590
0080
0240
0900
1800
2000
A500
5500
ENDCHAR
STARTCHAR zcaron
ENCODING 382
SWIDTH 349 0
DWIDTH 3 0
BBX 5 9 -1 -4
BITMAP
0900
1900
1500
0840
2A00
1800
8800
9400
A000
ENDCHAR
STARTCHAR circumflex
ENCODING 710
SWIDTH 567 0
DWIDTH 5 0
BBX 2 1 2 5
BITMAP
60
ENDCHAR
STARTCHAR caron
ENCODING 711
SWIDTH 567 0
DWIDTH 5 0
BBX 2 1 2 5
BITMAP
90
ENDCHAR
STARTCHAR breve
ENCODING 728
SWIDTH 567 0
DWIDTH 5 0
BBX 2 1 2 5
BITMAP
A0
ENDCHAR
STARTCHAR dotaccent
ENCODING 729
SWIDTH 567 0
DWIDTH 5 0
BBX 2 1 2 5
BITMAP
50
ENDCHAR
STARTCHAR ring
ENCODING 730
SWIDTH 567 0
DWIDTH 5 0
BBX 2 1 2 5
BITMAP
50
ENDCHAR
STARTCHAR ogonek
ENCODING 731
SWIDTH 567 0
DWIDTH 5 0
BBX 2 2 2 -1
BITMAP
40
90
ENDCHAR
STARTCHAR tilde
ENCODING 732
SWIDTH 567 0
DWIDTH 5 0
BBX 3 1 2 5
BITMAP
A4
ENDCHAR
STARTCHAR hungarumlaut
ENCODING 733
SWIDTH 567 0
DWIDTH 5 0
BBX 3 1 2 5
BITMAP
A4
ENDCHAR
STARTCHAR endash
ENCODING 8211
SWIDTH 353 0
DWIDTH 3 0
BBX 3 1 0 2
BITMAP
94
ENDCHAR
STARTCHAR emdash
ENCODING 8212
SWIDTH 508 0
DWIDTH 5 0
BBX 5 2 0 2
BITMAP
0400
A640
ENDCHAR
STARTCHAR quoteleft
ENCODING 8216
SWIDTH 155 0
DWIDTH 1 0
BBX 2 2 0 4
BITMAP
50
50
ENDCHAR
STARTCHAR quoteright
ENCODING 8217
SWIDTH 154 0
DWIDTH 1 0
BBX 2 2 0 4
BITMAP
60
50
ENDCHAR
STARTCHAR quotesinglbase
ENCODING 8218
SWIDTH 188 0
DWIDTH 2 0
BBX 2 2 -1 -1
BITMAP
60
10
ENDCHAR
STARTCHAR quotedblleft
ENCODING 8220
SWIDTH 289 0
DWIDTH 3 0
BBX 3 2 0 4
BITMAP
54
64
ENDCHAR
STARTCHAR quotedblright
ENCODING 8221
SWIDTH 288 0
DWIDTH 3 0
BBX 3 2 0 4
BITMAP
68
54
ENDCHAR
STARTCHAR quotedblbase
ENCODING 8222
SWIDTH 323 0
DWIDTH 3 0
BBX 3 2 -1 -1
BITMAP
68
14
ENDCHAR
STARTCHAR bullet
ENCODING 8226
SWIDTH 180 0
DWIDTH 2 0
BBX 2 3 0 1
BITMAP
40
D0
40
ENDCHAR
STARTCHAR ellipsis
ENCODING 8230
SWIDTH 614 0
DWIDTH 6 0
BBX 5 1 0 0
BITMAP
9540
ENDCHAR
STARTCHAR perthousand
ENCODING 8240
SWIDTH 851 0
DWIDTH 8 0
BBX 8 7 0 0
BITMAP
1040
5940
8A00
5800
1658
24A5
8668
ENDCHAR
STARTCHAR guilsinglleft
ENCODING 8249
SWIDTH 202 0
DWIDTH 2 0
BBX 3 4 -1 0
BITMAP
04
20
60
20
ENDCHAR
STARTCHAR guilsinglright
ENCODING 8250
SWIDTH 202 0
DWIDTH 2 0
BBX 3 4 -1 0
BITMAP
10
20
14
50
ENDCHAR
STARTCHAR fraction
ENCODING 8260
SWIDTH 600 0
DWIDTH 5 0
BBX 6 7 0 0
BITMAP
0050
0080
0200
0500
0800
2000
5000
ENDCHAR
STARTCHAR Euro
ENCODING 8364
SWIDTH 334 0
DWIDTH 3 0
BBX 4 6 0 0
BITMAP
15
60
A4
90
44
10
ENDCHAR
STARTCHAR minus
ENCODING 8722
SWIDTH 353 0
DWIDTH 3 0
BBX 3 1 0 2
BITMAP
94
ENDCHAR
STARTCHAR fi
ENCODING 64257
SWIDTH 549 0
DWIDTH 5 0
BBX 7 11 -1 -4
BITMAP
0400
0850
0800
0840
1980
3154
2590
5800
5800
8800
A400
ENDCHAR
STARTCHAR fl
ENCODING 64258
SWIDTH 516 0
DWIDTH 5 0
BBX 6 11 -1 -4
BITMAP
0400
0860
0850
0880
1980
3080
2540
5800
5800
8800
A400
ENDCHAR
STARTCHAR .notdef
ENCODING -1
SWIDTH 280 0
DWIDTH 3 0
BBX 1 1 0 0
BITMAP
00
ENDCHAR
ENDFONT
